<svg id="레이어_1" data-name="레이어 1" xmlns="http://www.w3.org/2000/svg" viewBox="0 0 270.19 99.66"><defs><style>.cls-1{fill:#4368b1;}.cls-2{font-size:13.97px;fill:#8e8e8e;font-family:NanumSquare_acR, NanumSquare_ac;}</style></defs><path class="cls-1" d="M41.53,142.84,41.37,122l9.09-.06.16,20.88Z" transform="translate(-7.11 -91.52)"/><path class="cls-1" d="M55.63,142.76l-.12-20.5,7.41,0,0,3a9.61,9.61,0,0,1,3.18-2.69,8.73,8.73,0,0,1,4-.89,8.4,8.4,0,0,1,3.34.6,6.49,6.49,0,0,1,2.5,1.83,6.71,6.71,0,0,1,1.33,2.7,24.78,24.78,0,0,1,.41,5.21l.06,10.65-8.14.05-.06-10.62a5.91,5.91,0,0,0-.64-3.21,2.46,2.46,0,0,0-2.16-.86,2.68,2.68,0,0,0-2.29,1,5.28,5.28,0,0,0-.74,3.12l.07,10.57Z" transform="translate(-7.11 -91.52)"/><path class="cls-1" d="M86.72,142.58l-7.27-20.45,8.11,0,3.62,12.29L94.59,122l7.75,0-6.52,20.53Z" transform="translate(-7.11 -91.52)"/><path class="cls-1" d="M118.3,136.33l7.8-.05a7.94,7.94,0,0,1-3.69,5.1,14.58,14.58,0,0,1-7.58,1.77,11.72,11.72,0,0,1-8.4-2.88,10.34,10.34,0,0,1-3.14-7.87,10.67,10.67,0,0,1,3.12-8.17c2.1-2,5-3,8.6-3s6.5,1,8.58,3.2,3.13,5.16,3.15,9v.49l-15.29.1a4.52,4.52,0,0,0,1.05,3,3.52,3.52,0,0,0,2.74,1.05,4.05,4.05,0,0,0,2-.45A2.28,2.28,0,0,0,118.3,136.33Zm-6.86-6.45,7.25,0a4.38,4.38,0,0,0-1.07-2.85,3.57,3.57,0,0,0-2.66-.94,3.32,3.32,0,0,0-2.53,1A4.24,4.24,0,0,0,111.44,129.88Z" transform="translate(-7.11 -91.52)"/><path class="cls-1" d="M130.15,142.33,130,121.84l7.41,0,0,3a9.58,9.58,0,0,1,3.18-2.68,8.73,8.73,0,0,1,4-.9,8.4,8.4,0,0,1,3.34.6,6.42,6.42,0,0,1,2.5,1.83,6.71,6.71,0,0,1,1.33,2.7,24.78,24.78,0,0,1,.41,5.21l.07,10.65-8.15.05-.06-10.61a6,6,0,0,0-.64-3.22,2.48,2.48,0,0,0-2.15-.86,2.69,2.69,0,0,0-2.3,1,5.21,5.21,0,0,0-.73,3.12l.06,10.57Z" transform="translate(-7.11 -91.52)"/><path class="cls-1" d="M171.37,142.1l-.16-24.32,17.55-.12,0,7-8.63.07,0,2.57,8.38-.06,0,6.71-8.38.06.06,8Z" transform="translate(-7.11 -91.52)"/><path class="cls-1" d="M214.62,121.35l.12,20.49-7.45,0v-3a9.53,9.53,0,0,1-3.18,2.7,8.77,8.77,0,0,1-4,.91,8.66,8.66,0,0,1-3.35-.61,6.27,6.27,0,0,1-3.79-4.49,25.13,25.13,0,0,1-.41-5.29l-.06-10.61,8.14,0,.06,10.58a6.12,6.12,0,0,0,.64,3.23,2.44,2.44,0,0,0,2.16.88,2.64,2.64,0,0,0,2.28-1.05,5.21,5.21,0,0,0,.75-3.13l-.06-10.54Z" transform="translate(-7.11 -91.52)"/><path class="cls-1" d="M219.34,141.82,219.18,121l8.22,0,.16,20.87Z" transform="translate(-7.11 -91.52)"/><path class="cls-1" d="M232.38,141.74l-.16-20.87,8.22-.05.16,20.88Z" transform="translate(-7.11 -91.52)"/><path class="cls-1" d="M41.53,142.84,41.37,122l9.09-.06.16,20.88Z" transform="translate(-7.11 -91.52)"/><path class="cls-1" d="M55.63,142.76l-.12-20.5,7.41,0,0,3a9.61,9.61,0,0,1,3.18-2.69,8.73,8.73,0,0,1,4-.89,8.4,8.4,0,0,1,3.34.6,6.49,6.49,0,0,1,2.5,1.83,6.71,6.71,0,0,1,1.33,2.7,24.78,24.78,0,0,1,.41,5.21l.06,10.65-8.14.05-.06-10.62a5.91,5.91,0,0,0-.64-3.21,2.46,2.46,0,0,0-2.16-.86,2.68,2.68,0,0,0-2.29,1,5.28,5.28,0,0,0-.74,3.12l.07,10.57Z" transform="translate(-7.11 -91.52)"/><path class="cls-1" d="M86.72,142.58l-7.27-20.45,8.11,0,3.62,12.29L94.59,122l7.75,0-6.52,20.53Z" transform="translate(-7.11 -91.52)"/><path class="cls-1" d="M118.3,136.33l7.8-.05a7.94,7.94,0,0,1-3.69,5.1,14.58,14.58,0,0,1-7.58,1.77,11.72,11.72,0,0,1-8.4-2.88,10.34,10.34,0,0,1-3.14-7.87,10.67,10.67,0,0,1,3.12-8.17c2.1-2,5-3,8.6-3s6.5,1,8.58,3.2,3.13,5.16,3.15,9v.49l-15.29.1a4.52,4.52,0,0,0,1.05,3,3.52,3.52,0,0,0,2.74,1.05,4.05,4.05,0,0,0,2-.45A2.28,2.28,0,0,0,118.3,136.33Zm-6.86-6.45,7.25,0a4.38,4.38,0,0,0-1.07-2.85,3.57,3.57,0,0,0-2.66-.94,3.32,3.32,0,0,0-2.53,1A4.24,4.24,0,0,0,111.44,129.88Z" transform="translate(-7.11 -91.52)"/><path class="cls-1" d="M130.15,142.33,130,121.84l7.41,0,0,3a9.58,9.58,0,0,1,3.18-2.68,8.73,8.73,0,0,1,4-.9,8.4,8.4,0,0,1,3.34.6,6.42,6.42,0,0,1,2.5,1.83,6.71,6.71,0,0,1,1.33,2.7,24.78,24.78,0,0,1,.41,5.21l.07,10.65-8.15.05-.06-10.61a6,6,0,0,0-.64-3.22,2.48,2.48,0,0,0-2.15-.86,2.69,2.69,0,0,0-2.3,1,5.21,5.21,0,0,0-.73,3.12l.06,10.57Z" transform="translate(-7.11 -91.52)"/><path class="cls-1" d="M171.37,142.1l-.16-24.32,17.55-.12,0,7-8.63.07,0,2.57,8.38-.06,0,6.71-8.38.06.06,8Z" transform="translate(-7.11 -91.52)"/><path class="cls-1" d="M214.62,121.35l.12,20.49-7.45,0v-3a9.53,9.53,0,0,1-3.18,2.7,8.77,8.77,0,0,1-4,.91,8.66,8.66,0,0,1-3.35-.61,6.27,6.27,0,0,1-3.79-4.49,25.13,25.13,0,0,1-.41-5.29l-.06-10.61,8.14,0,.06,10.58a6.12,6.12,0,0,0,.64,3.23,2.44,2.44,0,0,0,2.16.88,2.64,2.64,0,0,0,2.28-1.05,5.21,5.21,0,0,0,.75-3.13l-.06-10.54Z" transform="translate(-7.11 -91.52)"/><path class="cls-1" d="M219.34,141.82,219.18,121l8.22,0,.16,20.87Z" transform="translate(-7.11 -91.52)"/><path class="cls-1" d="M232.38,141.74l-.16-20.87,8.22-.05.16,20.88Z" transform="translate(-7.11 -91.52)"/><path class="cls-1" d="M266.77,117.74c-6.78-4.11-16.64-7.8-29.29-11-4.38-1.1-9.1-2.13-14-3.06a3.15,3.15,0,0,0-5.87-1.06c-10.48-1.77-21.87-3.15-33.89-4.11a1.75,1.75,0,0,0-.32-.48l-5.26-5.87a2,2,0,0,0-1.38-.67,2.09,2.09,0,0,0-1.46.51,2,2,0,0,0-.15,2.84L178,98.12c-11.39-.77-23.19-1.16-35.1-1.16-11.68,0-23.26.37-34.44,1.11a5.43,5.43,0,0,0-10.59.83,324.59,324.59,0,0,0-49.51,7.87c-20,5-33.06,11.38-37.8,18.44l-.33,0A3.14,3.14,0,0,0,8.57,131v.37c0,4.8,3.54,9.38,10.52,13.61,6.79,4.12,16.64,7.81,29.3,11,5.86,1.47,12.29,2.8,19.1,4l.09.16,4.14,6.71a2.08,2.08,0,0,0,1.25.9,2.5,2.5,0,0,0,.47.05,2,2,0,0,0,1-.3,2,2,0,0,0,.65-2.77l-2.4-3.9a467.11,467.11,0,0,0,70.19,5c25.79,0,50.74-1.83,72.2-5.29a5.43,5.43,0,0,0,10.64-1.53c0-.12,0-.25,0-.38,4.09-.81,8-1.69,11.73-2.61,12.65-3.17,22.51-6.86,29.29-11,7-4.23,10.53-8.81,10.53-13.61S273.76,122,266.77,117.74Zm-46.43,35.77a5.43,5.43,0,0,0-5.4,4.94,461.32,461.32,0,0,1-72,5.3,466.82,466.82,0,0,1-69.49-4.9l3.86-2.39a2,2,0,0,0-.71-3.69,2.05,2.05,0,0,0-1.41.27l-6.7,4.14,0,0-.2.1a2.07,2.07,0,0,0-.6.58c-17.25-3-31.61-7-41.55-11.53s-15.43-9.79-15.5-14.91a3.14,3.14,0,0,0,2.82-3.12,3.11,3.11,0,0,0-1-2.27c3.9-5.53,13.72-10.77,28.52-15.19,15.19-4.53,34.91-8,57.07-10a5.42,5.42,0,0,0,10.66-.83c11.13-.74,22.64-1.11,34.24-1.11,11.9,0,23.7.39,35.09,1.17l-3.57,3.2a2,2,0,0,0,2.68,3l5.87-5.26,0,0,.18-.14a2,2,0,0,0,.31-.35c11.94,1,23.27,2.33,33.7,4.09a3.15,3.15,0,0,0,5.86,1c32.7,6.19,52.2,15.77,52.2,25.67,0,9.64-18.69,19.06-50.05,25.25A5.39,5.39,0,0,0,220.34,153.51Z" transform="translate(-7.11 -91.52)"/><text class="cls-2" transform="translate(8 96.19)">서귀포산업과학고등학교 발명반 인재풀 플랫폼</text></svg>